<svg xmlns="http://www.w3.org/2000/svg" viewBox="0 0 128 128" role="img" aria-label="DALT.PHP favicon">
    <defs>
        <linearGradient id="bg" x1="20" y1="12" x2="112" y2="120" gradientUnits="userSpaceOnUse">
            <stop offset="0" stop-color="#0f172a"/>
            <stop offset="0.55" stop-color="#111827"/>
            <stop offset="1" stop-color="#1e293b"/>
        </linearGradient>
        <linearGradient id="accent" x1="26" y1="26" x2="98" y2="98" gradientUnits="userSpaceOnUse">
            <stop offset="0" stop-color="#fbbf24"/>
            <stop offset="1" stop-color="#f59e0b"/>
        </linearGradient>
    </defs>

    <rect x="8" y="8" width="112" height="112" rx="30" fill="url(#bg)"/>
    <rect x="9" y="9" width="110" height="110" rx="29" fill="none" stroke="#ffffff" stroke-opacity="0.08"/>

    <path d="M35 30h24c17.673 0 32 14.327 32 32s-14.327 32-32 32H35V30Z" fill="url(#accent)"/>
    <path d="M34 42h24c11.046 0 20 8.954 20 20s-8.954 20-20 20H34V42Z" fill="#0f172a"/>
    <path d="M51 52h8.5c5.247 0 9.5 4.253 9.5 9.5S64.747 71 59.5 71H51V52Z" fill="url(#accent)"/>
</svg>